# xmcd
#
# Track frame offsets: 
#        150
#        15695
#        32760
#        47399
#        72011
#        92024
#        111102
#        127865
#        144411
#        166951
#        196587
#        210730
#        226243
#        240156
#        255578
#        274280
#
# Disc length: 3878 seconds
#
# Revision: 2
# Processed by: cddbd v1.5.2PL0 Copyright (c) Steve Scherf et al.
# Submitted via: ExactAudioCopy v0.99pb4
#
DISCID=c70f2410
DTITLE=The Doobie Brothers - The Platinum Collection
DYEAR=2007
DGENRE=Rock
TTITLE0=Listen to the Music
TTITLE1=Takin' it to the Streets
TTITLE2=China Groove
TTITLE3=South City Midnight Lady
TTITLE4=Another Park Another Sunday
TTITLE5=Black Water
TTITLE6=Sweet Maxine
TTITLE7=Take me in Your Arms (Rock me)
TTITLE8=Texas Lullaby
TTITLE9=I Cheat the Hangman
TTITLE10=Nothin' but a Heartache
TTITLE11=Little Darling (I Need You)
TTITLE12=You Belong to me
TTITLE13=Minute by Minute
TTITLE14=Dedicate This Heart
TTITLE15=What a Fool Believes
EXTD=
EXTT0=
EXTT1=
EXTT2=
EXTT3=
EXTT4=
EXTT5=
EXTT6=
EXTT7=
EXTT8=
EXTT9=
EXTT10=
EXTT11=
EXTT12=
EXTT13=
EXTT14=
EXTT15=
PLAYORDER=
